:version 1.10
:name ASF
:units
  mass 1
  length 1
  angle deg
:documentation
  ASF file generated by Kaydara
:root
  axis xyz
  order  tx ty tz rx ry rz
  position 0 0 0
  orientation 0 0 0
:bonedata
  begin
    id 1
    name RightUpLegDummy
    direction -0.718183 -0.695806 0.00816078
    length 4.904
    axis 0 0 0 xyz
  end
  begin
    id 2
    name RightUpLeg
    direction 3.53989e-006 -0.995788 0.0916897
    length 17.4976
    axis -3.49089 -0.000906621 0.000287158 xyz
    dof rx ry rz
  end
  begin
    id 3
    name RightLeg
    direction 0.00371093 -0.995096 -0.0988418
    length 16.5821
    axis 3.68512 0.0193738 -0.131023 xyz
    dof rx ry rz
  end
  begin
    id 4
    name RightFoot
    direction 0.000791514 -0.46099 0.887405
    length 3.77069
    axis 4.84075e-005 -0.120479 -0.188788 xyz
    dof rx ry rz
  end
  begin
    id 5
    name RightToes
    direction 0.00124746 -0.014064 0.9999
    length 3.85082
    axis 0.00048216 0.542163 -0.142577 xyz
    dof rx ry rz
  end
  begin
    id 6
    name SpineDummy
    direction 8.3039e-015 1 4.57515e-016
    length 4.6813
    axis 0 0 0 xyz
  end
  begin
    id 7
    name Spine
    direction -4.63632e-008 0.999988 0.00495137
    length 10.1015
    axis -0.00138897 0.000121419 3.25764e-006 xyz
    dof rx ry rz
  end
  begin
    id 8
    name Spine1
    direction 0 0 0
    length 0
    axis -0.00138896 0.000121452 2.39764e-006 xyz
    dof rx ry rz
  end
  begin
    id 9
    name HEadDummy
    direction -3.91456e-008 0.999999 0.00127422
    length 3.43865
    axis -0.00138896 0.000121452 2.39764e-006 xyz
  end
  begin
    id 10
    name HEad
    direction -0.0222688 0.980941 0.193023
    length 5.12695
    axis -0.00138895 0.000121452 2.39764e-006 xyz
    dof rx ry rz
  end
  begin
    id 11
    name LeftShoulder1Dummy
    direction 0.998891 -0.0402508 -0.0244456
    length 3.5433
    axis -0.00138896 0.000121452 2.39764e-006 xyz
  end
  begin
    id 12
    name LeftShoulder1
    direction 0.99951 -0.000327743 0.0313091
    length 4.05031
    axis -0.00138896 0.000121452 2.39764e-006 xyz
    dof rx ry rz
  end
  begin
    id 13
    name LeftArm
    direction 0.998561 -0.00100054 -0.0536182
    length 10.3537
    axis -23.1894 0.134784 0.96751 xyz
    dof rx ry rz
  end
  begin
    id 14
    name LeftForeArm
    direction 0.998903 0.00866434 0.046012
    length 8.70632
    axis -9.91835 -0.06569 -0.177792 xyz
    dof rx ry rz
  end
  begin
    id 15
    name LeftHand
    direction 0.992938 -0.0411636 0.11126
    length 5.32135
    axis -0.00960227 -0.00340091 0.185174 xyz
    dof rx ry rz
  end
  begin
    id 16
    name RightShoulderDummy
    direction -0.998891 -0.0402509 -0.0244414
    length 3.5433
    axis -0.00138896 0.000121452 2.39764e-006 xyz
  end
  begin
    id 17
    name RightShoulder
    direction -0.99951 -0.000327827 0.0313133
    length 4.05031
    axis 0.215806 0.000203644 -0.00680151 xyz
    dof rx ry rz
  end
  begin
    id 18
    name RightArm
    direction -0.998573 -0.000999583 -0.053403
    length 10.3947
    axis -23.2009 -0.134239 -0.9641 xyz
    dof rx ry rz
  end
  begin
    id 19
    name RightForeArm
    direction -0.998898 0.00868026 0.0461306
    length 8.68355
    axis -9.92322 0.0658061 0.178869 xyz
    dof rx ry rz
  end
  begin
    id 20
    name RightHand
    direction -0.992843 -0.0414603 0.112003
    length 5.28593
    axis -0.00960634 0.00330671 -0.185226 xyz
    dof rx ry rz
  end
  begin
    id 21
    name LeftUpLegDummy
    direction 0.718183 -0.695806 0.00816078
    length 4.904
    axis 0 0 0 xyz
  end
  begin
    id 22
    name LeftUpLeg
    direction -6.8115e-006 -0.995793 0.0916336
    length 17.4976
    axis -3.48766 0.00143441 -0.000523914 xyz
    dof rx ry rz
  end
  begin
    id 23
    name LeftLeg
    direction -0.00601357 -0.995091 -0.0987824
    length 16.5821
    axis 3.68177 -0.00654038 -0.00028478 xyz
    dof rx ry rz
  end
  begin
    id 24
    name LeftFoot
    direction -0.00417578 -0.460984 0.887399
    length 3.77069
    axis 1.87232e-006 4.66002e-005 -8.1837e-006 xyz
    dof rx ry rz
  end
  begin
    id 25
    name LeftToes
    direction 0.00818058 -0.00485161 0.999955
    length 3.85048
    axis 1.06246e-005 4.65855e-005 -8.18502e-006 xyz
    dof rx ry rz
  end
:hierarchy
  begin
    root RightUpLegDummy SpineDummy LeftUpLegDummy
    RightUpLegDummy RightUpLeg
    RightUpLeg RightLeg
    RightLeg RightFoot
    RightFoot RightToes
    SpineDummy Spine
    Spine Spine1
    Spine1 HEadDummy LeftShoulder1Dummy RightShoulderDummy
    HEadDummy HEad
    LeftShoulder1Dummy LeftShoulder1
    LeftShoulder1 LeftArm
    LeftArm LeftForeArm
    LeftForeArm LeftHand
    RightShoulderDummy RightShoulder
    RightShoulder RightArm
    RightArm RightForeArm
    RightForeArm RightHand
    LeftUpLegDummy LeftUpLeg
    LeftUpLeg LeftLeg
    LeftLeg LeftFoot
    LeftFoot LeftToes
  end

:SAMPLES-PER-SECOND 30
:FRAME-RANGE 1-2643
:FULLY-SPECIFIED
:DEGREES
83
root  36.1126 28.2225 60.8618 9.08065 62.2978 12.6133
RightUpLeg  -34.2507 12.3234 -27.2507
RightLeg  97.2946 -3.71411 23.2613
RightFoot  -34.0936 1.80814 10.1238
RightToes  5.38607e-012 1.2921e-014 -6.02303e-014
Spine  23.895 7.04639 -0.0126201
Spine1  -0.12995 8.82014 -12.5475
HEad  3.09443 13.0669 -5.65759
LeftShoulder1  1.209 -0.775821 -23.6225
LeftArm  24.1169 -1.9223 -47.3358
LeftForeArm  18.2284 -20.8383 -5.1252
LeftHand  -0.0242344 5.42424 3.88162
RightShoulder  2.72195 7.01159 20.096
RightArm  -34.288 16.7696 50.0139
RightForeArm  60.2359 -3.92423 -2.41003
RightHand  -0.38188 -3.74183 -26.377
LeftUpLeg  -57.5466 -7.29816 17.346
LeftLeg  64.2808 -8.21159 -17.3752
LeftFoot  -11.4953 0.0428328 -18.9034
LeftToes  -4.79707e-012 -5.93756e-011 -7.55542e-012
84
root  36.7925 27.8899 60.7984 8.71828 59.5663 13.0098
RightUpLeg  -36.7177 11.4286 -27.5251
RightLeg  102.123 -4.27344 17.7258
RightFoot  -30.0793 1.6637 11.2962
RightToes  5.38607e-012 1.2921e-014 -6.02303e-014
Spine  25.02 5.9304 -2.04074
Spine1  -0.464796 7.24307 -12.4394
HEad  3.27279 10.8681 -5.38148
LeftShoulder1  1.6525 -2.41513 -22.855
LeftArm  14.0986 -9.50488 -47.2873
LeftForeArm  26.1933 -15.7849 -8.33481
LeftHand  -0.016108 5.68855 4.03729
RightShoulder  2.74263 6.74415 21.0689
RightArm  -34.0539 14.6614 54.0357
RightForeArm  60.3458 -4.15672 -2.39714
RightHand  -0.415456 -3.57221 -26.0423
LeftUpLeg  -56.979 -5.72197 16.309
LeftLeg  68.0304 -6.85636 -17.444
LeftFoot  -13.9889 -0.32995 -17.7601
LeftToes  -4.79707e-012 -5.93756e-011 -7.55542e-012
85
root  37.3788 27.8306 60.7182 7.48303 56.891 12.4064
RightUpLeg  -39.1957 7.44457 -24.7587
RightLeg  106.207 -1.58273 5.86877
RightFoot  -26.6427 0.88439 7.92219
RightToes  5.38607e-012 1.2921e-014 -6.02303e-014
Spine  25.4654 4.38131 -3.21087
Spine1  -0.889055 5.41261 -12.04
HEad  5.30751 9.07381 -5.19001
LeftShoulder1  1.98019 -3.70205 -22.1945
LeftArm  1.49844 -17.958 -46.2738
LeftForeArm  36.4151 -8.29227 -11.2322
LeftHand  0.00146932 6.18637 4.3678
RightShoulder  2.72319 6.22519 22.4332
RightArm  -33.726 10.5136 56.3987
RightForeArm  59.7269 -4.45798 -1.88071
RightHand  -0.390644 -3.6393 -25.4022
LeftUpLeg  -55.6072 -4.56921 15.8811
LeftLeg  70.2797 -5.84149 -16.8301
LeftFoot  -16.0028 -0.606288 -17.1284
LeftToes  -4.79707e-012 -5.93756e-011 -7.55542e-012
86
root  37.7598 27.9303 60.7066 7.02556 53.6219 12.4724
RightUpLeg  -41.9044 0.635612 -20.9544
RightLeg  106.742 2.55898 -6.46769
RightFoot  -28.1824 0.579308 5.20481
RightToes  5.38607e-012 1.2921e-014 -6.02303e-014
Spine  25.123 3.0403 -5.72391
Spine1  -1.19866 3.42062 -10.6292
HEad  7.24076 7.58609 -4.97977
LeftShoulder1  2.02935 -4.15529 -21.0696
LeftArm  -6.12075 -23.2759 -46.7206
LeftForeArm  41.4002 -5.06281 -10.6178
LeftHand  0.0302223 6.96428 4.58
RightShoulder  2.55205 5.33908 23.4299
RightArm  -34.9806 5.4864 57.2398
RightForeArm  59.1952 -4.10821 -1.88259
RightHand  -0.121303 -4.85897 -25.2156
LeftUpLeg  -53.6453 -3.34465 15.3788
LeftLeg  71.0957 -5.12303 -15.48
LeftFoot  -17.4171 -0.814262 -17.1872
LeftToes  -4.79707e-012 -5.93756e-011 -7.55542e-012
87
root  37.9916 28.2461 60.7591 6.29103 49.5127 12.0684
RightUpLeg  -45.2024 -6.65226 -16.7016
RightLeg  104.29 4.04984 -12.4773
RightFoot  -30.3279 0.656236 5.15615
RightToes  5.38607e-012 1.2921e-014 -6.02303e-014
Spine  24.5686 1.77425 -7.89353
Spine1  -1.83364 1.5723 -8.93
HEad  8.25164 5.70887 -4.87703
LeftShoulder1  2.04342 -4.33188 -20.5946
LeftArm  -7.42244 -25.9734 -47.0071
LeftForeArm  43.2235 -6.12708 -10.042
LeftHand  0.0557933 7.35067 5.24216
RightShoulder  2.41787 4.79112 23.782
RightArm  -35.5644 0.454846 55.8902
RightForeArm  55.7787 -3.14746 -1.29561
RightHand  -0.0462999 -5.20016 -24.7375
LeftUpLeg  -50.7914 -1.12665 15.2303
LeftLeg  70.5997 -4.76222 -13.9508
LeftFoot  -18.3203 -0.98054 -17.7469
LeftToes  -4.79707e-012 -5.93756e-011 -7.55542e-012
88
root  38.1374 28.8047 60.8827 5.5826 44.5033 11.8034
RightUpLeg  -48.5708 -14.1062 -12.1108
RightLeg  99.9107 3.69517 -15.5823
RightFoot  -31.4999 0.626212 4.7279
RightToes  5.38607e-012 1.2921e-014 -6.02303e-014
Spine  23.6886 0.612452 -8.97031
Spine1  -2.42462 0.222228 -7.88082
HEad  9.5481 2.95099 -4.33791
LeftShoulder1  1.98791 -4.16529 -20.4372
LeftArm  -4.14817 -27.7913 -47.7677
LeftForeArm  40.3144 -7.1016 -10.4914
LeftHand  0.0492881 7.18072 5.26599
RightShoulder  2.204 4.23037 23.1181
RightArm  -34.9901 -2.73519 53.2194
RightForeArm  53.9017 -2.38611 -0.46915
RightHand  0.0740033 -5.77049 -24.2763
LeftUpLeg  -46.6682 1.54984 15.2208
LeftLeg  68.3963 -4.4199 -11.3974
LeftFoot  -18.4646 -1.06909 -18.7949
LeftToes  -4.79707e-012 -5.93756e-011 -7.55542e-012
89
root  38.1532 29.578 61.1402 4.55155 38.555 11.2402
RightUpLeg  -51.4734 -20.6116 -5.75565
RightLeg  93.7196 2.59902 -21.8414
RightFoot  -32.6056 0.584932 4.29822
RightToes  5.38607e-012 1.2921e-014 -6.02303e-014
Spine  22.489 -0.386214 -8.43106
Spine1  -2.78164 -0.45046 -7.89262
HEad  11.6444 -0.457201 -3.71302
LeftShoulder1  1.96949 -3.95403 -20.9936
LeftArm  -0.989666 -28.0347 -48.6956
LeftForeArm  38.5934 -9.00873 -10.3538
LeftHand  0.0375607 7.08304 4.78104
RightShoulder  1.92805 3.6359 21.5358
RightArm  -35.3787 -3.91886 51.7336
RightForeArm  54.8188 -0.77334 -0.233546
RightHand  0.23278 -6.49046 -24.9237
LeftUpLeg  -41.0661 4.7228 16.1469
LeftLeg  64.182 -4.07105 -8.44655
LeftFoot  -17.7091 -1.06938 -20.9105
LeftToes  -4.79707e-012 -5.93756e-011 -7.55542e-012
90
root  38.0444 30.4595 61.6003 4.28427 31.5153 10.9995
RightUpLeg  -54.3025 -26.4032 1.81629
RightLeg  87.1717 -0.179335 -28.6548
RightFoot  -32.9409 0.349573 3.00889
RightToes  5.38607e-012 1.2921e-014 -6.02303e-014
Spine  20.4978 -1.28694 -7.2241
Spine1  -3.75593 -0.833016 -8.77094
HEad  15.0178 -3.81745 -2.11989
LeftShoulder1  1.91217 -3.40604 -22.4404
LeftArm  2.09548 -26.7101 -48.061
LeftForeArm  36.644 -10.9301 -9.94305
LeftHand  0.0162153 6.66059 4.29839
RightShoulder  1.85696 3.75859 19.9384
RightArm  -35.0352 -2.37201 51.0175
RightForeArm  54.8767 0.37656 0.0775611
RightHand  0.368515 -7.05785 -25.7043
LeftUpLeg  -34.4687 7.89953 17.727
LeftLeg  57.7525 -2.80587 -4.2357
LeftFoot  -15.387 -0.776857 -24.25
LeftToes  -4.79707e-012 -5.93756e-011 -7.55542e-012
91
root  37.7703 31.2487 62.3109 5.19213 22.199 11.8633
RightUpLeg  -56.1715 -28.4337 7.82781
RightLeg  81.4623 -3.35718 -28.8196
RightFoot  -31.7398 0.145485 2.00924
RightToes  5.38607e-012 1.2921e-014 -6.02303e-014
Spine  17.1801 -1.1389 -6.37531
Spine1  -4.91371 -0.0728288 -10.8796
HEad  19.1845 -7.98293 -0.302787
LeftShoulder1  1.65756 -2.07944 -24.8482
LeftArm  4.7905 -25.0532 -46.3718
LeftForeArm  34.9045 -12.7817 -9.26792
LeftHand  0.00372349 6.5121 3.59386
RightShoulder  1.83488 4.11116 18.2716
RightArm  -35.0571 0.96761 52.5953
RightForeArm  56.2491 1.77293 0.135901
RightHand  0.503089 -7.5406 -26.9674
LeftUpLeg  -27.5092 12.2575 19.0133
LeftLeg  51.8624 -0.820985 -0.640391
LeftFoot  -10.806 0.205447 -29.6503
LeftToes  -4.79707e-012 -5.93756e-011 -7.55542e-012
92
root  37.1463 31.8693 63.0906 4.98357 11.5157 12.0517
RightUpLeg  -53.6565 -27.166 12.3447
RightLeg  74.4397 -6.98636 -27.5592
RightFoot  -24.7257 -0.111887 0.474414
RightToes  5.38607e-012 1.2921e-014 -6.02303e-014
Spine  13.8833 -0.169458 -5.42524
Spine1  -4.28775 1.57069 -12.8687
HEad  19.6556 -11.2335 0.760921
LeftShoulder1  1.2274 -0.557058 -25.8779
LeftArm  5.16849 -23.419 -45.6044
LeftForeArm  33.2747 -15.0421 -7.88607
LeftHand  -0.00478143 6.51102 2.81715
RightShoulder  1.87018 4.65579 16.9229
RightArm  -33.3641 7.61438 55.8079
RightForeArm  57.9937 3.54709 0.722659
RightHand  0.577954 -7.8435 -27.1095
LeftUpLeg  -21.5609 16.9172 21.5673
LeftLeg  50.2129 2.02194 3.06651
LeftFoot  -1.39265 2.93615 -32.7901
LeftToes  -4.79707e-012 -5.93756e-011 -7.55542e-012
93
root  36.4388 32.1209 63.722 4.23042 3.7559 13.2043
RightUpLeg  -46.6778 -26.8863 13.3708
RightLeg  66.6789 -9.82779 -24.1258
RightFoot  -33.6334 -1.31432 -5.50302
RightToes  5.38607e-012 1.2921e-014 -6.02303e-014
Spine  13.7884 0.271309 -6.71466
Spine1  -5.53708 1.63726 -12.3662
HEad  18.0704 -13.8875 1.56688
LeftShoulder1  1.08746 -0.0765014 -26.2673
LeftArm  8.21696 -22.0022 -44.6064
LeftForeArm  29.7445 -16.8026 -6.98467
LeftHand  -0.0119342 6.25649 2.54154
RightShoulder  2.01444 5.23434 17.0411
RightArm  -29.433 15.0172 58.5327
RightForeArm  59.5103 6.3825 2.36845
RightHand  0.621256 -8.00756 -27.2814
LeftUpLeg  -20.9591 13.3794 21.1295
LeftLeg  54.5747 4.12088 6.71275
LeftFoot  7.42719 3.41804 -20.7582
LeftToes  -4.79707e-012 -5.93756e-011 -7.55542e-012
94
root  35.8768 32.128 64.1588 3.58008 -2.15714 13.5682
RightUpLeg  -42.611 -22.3706 13.1521
RightLeg  63.8776 -10.8534 -23.2534
RightFoot  -36.0348 -1.8585 -7.35509
RightToes  5.38607e-012 1.2921e-014 -6.02303e-014
Spine  14.7324 0.524303 -4.78973
Spine1  -6.41668 1.94507 -12.5917
HEad  15.6316 -17.6504 2.04687
LeftShoulder1  1.2288 -0.60561 -25.5042
LeftArm  10.307 -22.4766 -44.8873
LeftForeArm  29.3606 -16.7992 -7.15101
LeftHand  -0.0189342 6.01821 2.10871
RightShoulder  2.05083 5.54131 16.6017
RightArm  -25.1295 22.3334 62.0757
RightForeArm  60.6633 9.29921 3.9151
RightHand  0.704925 -8.34413 -27.393
LeftUpLeg  -24.5829 5.41203 20.1484
LeftLeg  63.1708 0.263652 1.22312
LeftFoot  2.53089 2.02527 -16.6754
LeftToes  -4.79707e-012 -5.93756e-011 -7.55542e-012
95
root  35.3028 32.0598 64.5436 2.10814 -10.6367 13.7288
RightUpLeg  -39.0984 -14.669 13.0386
RightLeg  63.7439 -10.9646 -23.3261
RightFoot  -35.7104 -2.10069 -8.58195
RightToes  5.38607e-012 1.2921e-014 -6.02303e-014
Spine  15.0871 1.75058 -2.48117
Spine1  -4.96847 3.91456 -14.7333
HEad  10.0649 -20.5559 3.60706
LeftShoulder1  1.42068 -1.29994 -24.9127
LeftArm  8.9306 -23.73 -43.8196
LeftForeArm  30.0909 -16.8504 -7.03535
LeftHand  -0.0239081 6.35513 1.12702
RightShoulder  2.25237 6.56004 16.2328
RightArm  -20.2066 31.1503 66.6076
RightForeArm  61.2778 10.6945 4.57489
RightHand  0.721774 -8.49878 -26.7119
LeftUpLeg  -28.4095 -0.794693 18.8881
LeftLeg  72.0992 -1.42516 -3.99419
LeftFoot  -2.8615 1.14827 -15.1849
LeftToes  -4.79707e-012 -5.93756e-011 -7.55542e-012
